<mxfile host="app.diagrams.net" modified="2021-09-12T18:56:05.350Z" agent="5.0 (Windows NT 10.0; Win64; x64) AppleWebKit/537.36 (KHTML, like Gecko) Chrome/93.0.4577.63 Safari/537.36" etag="S0fwTbQNzLCuG9F1-3R5" version="15.1.4" type="github">
  <diagram id="xy2y00OZExUv7i6m-re5" name="Page-1">
    <mxGraphModel dx="1824" dy="834" grid="1" gridSize="10" guides="1" tooltips="1" connect="1" arrows="1" fold="1" page="1" pageScale="1" pageWidth="850" pageHeight="1100" math="0" shadow="0">
      <root>
        <mxCell id="0" />
        <mxCell id="1" parent="0" />
        <mxCell id="o8Gij-xZNaGj4_QO73di-31" value="" style="rounded=0;whiteSpace=wrap;html=1;" vertex="1" parent="1">
          <mxGeometry x="130" y="120" width="560" height="720" as="geometry" />
        </mxCell>
        <mxCell id="o8Gij-xZNaGj4_QO73di-33" value="" style="rounded=0;whiteSpace=wrap;html=1;" vertex="1" parent="1">
          <mxGeometry x="130" y="120" width="280" height="60" as="geometry" />
        </mxCell>
        <mxCell id="o8Gij-xZNaGj4_QO73di-34" value="" style="rounded=0;whiteSpace=wrap;html=1;" vertex="1" parent="1">
          <mxGeometry x="410" y="120" width="280" height="60" as="geometry" />
        </mxCell>
        <mxCell id="o8Gij-xZNaGj4_QO73di-35" value="&lt;font style=&quot;font-size: 18px&quot;&gt;&lt;b&gt;ผู้ใช้งาน&lt;/b&gt;&lt;/font&gt;" style="text;html=1;strokeColor=none;fillColor=none;align=center;verticalAlign=middle;whiteSpace=wrap;rounded=0;" vertex="1" parent="1">
          <mxGeometry x="225" y="140" width="90" height="20" as="geometry" />
        </mxCell>
        <mxCell id="o8Gij-xZNaGj4_QO73di-36" value="&lt;font style=&quot;font-size: 18px&quot;&gt;&lt;b&gt;ระบบ&lt;/b&gt;&lt;/font&gt;" style="text;html=1;strokeColor=none;fillColor=none;align=center;verticalAlign=middle;whiteSpace=wrap;rounded=0;" vertex="1" parent="1">
          <mxGeometry x="505" y="140" width="90" height="20" as="geometry" />
        </mxCell>
        <mxCell id="o8Gij-xZNaGj4_QO73di-40" value="" style="edgeStyle=orthogonalEdgeStyle;rounded=0;orthogonalLoop=1;jettySize=auto;html=1;entryX=0.5;entryY=0;entryDx=0;entryDy=0;" edge="1" parent="1" source="o8Gij-xZNaGj4_QO73di-37" target="o8Gij-xZNaGj4_QO73di-38">
          <mxGeometry relative="1" as="geometry" />
        </mxCell>
        <mxCell id="o8Gij-xZNaGj4_QO73di-37" value="" style="ellipse;whiteSpace=wrap;html=1;aspect=fixed;fillColor=#00331A;" vertex="1" parent="1">
          <mxGeometry x="240" y="220" width="60" height="60" as="geometry" />
        </mxCell>
        <mxCell id="o8Gij-xZNaGj4_QO73di-41" value="" style="edgeStyle=orthogonalEdgeStyle;rounded=0;orthogonalLoop=1;jettySize=auto;html=1;" edge="1" parent="1" source="o8Gij-xZNaGj4_QO73di-38" target="o8Gij-xZNaGj4_QO73di-39">
          <mxGeometry relative="1" as="geometry" />
        </mxCell>
        <mxCell id="o8Gij-xZNaGj4_QO73di-38" value="" style="ellipse;whiteSpace=wrap;html=1;aspect=fixed;fillColor=#FFFFFF;" vertex="1" parent="1">
          <mxGeometry x="255" y="320" width="30" height="30" as="geometry" />
        </mxCell>
        <mxCell id="o8Gij-xZNaGj4_QO73di-39" value="กรอกรหัสพนักงาน (userCode) และ รหัสผ่าน" style="rounded=0;whiteSpace=wrap;html=1;fillColor=#FFFFFF;" vertex="1" parent="1">
          <mxGeometry x="210" y="400" width="120" height="50" as="geometry" />
        </mxCell>
        <mxCell id="o8Gij-xZNaGj4_QO73di-43" value="" style="edgeStyle=segmentEdgeStyle;endArrow=classic;html=1;exitX=0.5;exitY=1;exitDx=0;exitDy=0;" edge="1" parent="1" source="o8Gij-xZNaGj4_QO73di-39" target="o8Gij-xZNaGj4_QO73di-45">
          <mxGeometry width="50" height="50" relative="1" as="geometry">
            <mxPoint x="370" y="560" as="sourcePoint" />
            <mxPoint x="370" y="500" as="targetPoint" />
            <Array as="points">
              <mxPoint x="270" y="500" />
            </Array>
          </mxGeometry>
        </mxCell>
        <mxCell id="o8Gij-xZNaGj4_QO73di-44" value="" style="endArrow=none;html=1;entryX=0;entryY=1;entryDx=0;entryDy=0;exitX=0.5;exitY=1;exitDx=0;exitDy=0;" edge="1" parent="1" source="o8Gij-xZNaGj4_QO73di-31" target="o8Gij-xZNaGj4_QO73di-34">
          <mxGeometry width="50" height="50" relative="1" as="geometry">
            <mxPoint x="370" y="330" as="sourcePoint" />
            <mxPoint x="420" y="280" as="targetPoint" />
            <Array as="points" />
          </mxGeometry>
        </mxCell>
        <mxCell id="o8Gij-xZNaGj4_QO73di-47" value="" style="edgeStyle=orthogonalEdgeStyle;rounded=0;orthogonalLoop=1;jettySize=auto;html=1;" edge="1" parent="1" source="o8Gij-xZNaGj4_QO73di-45" target="o8Gij-xZNaGj4_QO73di-46">
          <mxGeometry relative="1" as="geometry" />
        </mxCell>
        <mxCell id="o8Gij-xZNaGj4_QO73di-45" value="ตรวจสอบว่ามีในฐานข้อมูล" style="rounded=0;whiteSpace=wrap;html=1;fillColor=#FFFFFF;" vertex="1" parent="1">
          <mxGeometry x="490" y="470" width="120" height="50" as="geometry" />
        </mxCell>
        <mxCell id="o8Gij-xZNaGj4_QO73di-49" value="" style="edgeStyle=orthogonalEdgeStyle;rounded=0;orthogonalLoop=1;jettySize=auto;html=1;" edge="1" parent="1" source="o8Gij-xZNaGj4_QO73di-46" target="o8Gij-xZNaGj4_QO73di-38">
          <mxGeometry relative="1" as="geometry">
            <mxPoint x="425" y="335" as="targetPoint" />
            <Array as="points">
              <mxPoint x="650" y="610" />
              <mxPoint x="650" y="335" />
            </Array>
          </mxGeometry>
        </mxCell>
        <mxCell id="o8Gij-xZNaGj4_QO73di-54" value="" style="edgeStyle=orthogonalEdgeStyle;rounded=0;orthogonalLoop=1;jettySize=auto;html=1;" edge="1" parent="1" source="o8Gij-xZNaGj4_QO73di-46" target="o8Gij-xZNaGj4_QO73di-52">
          <mxGeometry relative="1" as="geometry">
            <mxPoint x="270" y="650.0285714285715" as="targetPoint" />
          </mxGeometry>
        </mxCell>
        <mxCell id="o8Gij-xZNaGj4_QO73di-46" value="&lt;font style=&quot;font-size: 7px&quot;&gt;มีในฐานข้อมูล?&lt;/font&gt;" style="rhombus;whiteSpace=wrap;html=1;fillColor=#FFFFFF;" vertex="1" parent="1">
          <mxGeometry x="520" y="580" width="60" height="60" as="geometry" />
        </mxCell>
        <mxCell id="o8Gij-xZNaGj4_QO73di-50" value="ไม่" style="text;html=1;strokeColor=none;fillColor=none;align=center;verticalAlign=middle;whiteSpace=wrap;rounded=0;" vertex="1" parent="1">
          <mxGeometry x="595" y="580" width="40" height="20" as="geometry" />
        </mxCell>
        <mxCell id="o8Gij-xZNaGj4_QO73di-58" value="" style="edgeStyle=orthogonalEdgeStyle;rounded=0;orthogonalLoop=1;jettySize=auto;html=1;entryX=0.5;entryY=0;entryDx=0;entryDy=0;" edge="1" parent="1" source="o8Gij-xZNaGj4_QO73di-52" target="o8Gij-xZNaGj4_QO73di-56">
          <mxGeometry relative="1" as="geometry" />
        </mxCell>
        <mxCell id="o8Gij-xZNaGj4_QO73di-52" value="ล็อกอินเข้าสู่หน้า Calendar" style="rounded=0;whiteSpace=wrap;html=1;fillColor=#FFFFFF;" vertex="1" parent="1">
          <mxGeometry x="210" y="670" width="120" height="40" as="geometry" />
        </mxCell>
        <mxCell id="o8Gij-xZNaGj4_QO73di-55" value="ใช่" style="text;html=1;strokeColor=none;fillColor=none;align=center;verticalAlign=middle;whiteSpace=wrap;rounded=0;" vertex="1" parent="1">
          <mxGeometry x="465" y="580" width="40" height="20" as="geometry" />
        </mxCell>
        <mxCell id="o8Gij-xZNaGj4_QO73di-56" value="" style="ellipse;whiteSpace=wrap;html=1;aspect=fixed;fillColor=#FFFFFF;" vertex="1" parent="1">
          <mxGeometry x="258.75" y="770" width="22.5" height="22.5" as="geometry" />
        </mxCell>
        <mxCell id="o8Gij-xZNaGj4_QO73di-57" value="" style="ellipse;whiteSpace=wrap;html=1;aspect=fixed;fillColor=#190033;" vertex="1" parent="1">
          <mxGeometry x="262.54" y="773.79" width="14.92" height="14.92" as="geometry" />
        </mxCell>
        <mxCell id="o8Gij-xZNaGj4_QO73di-59" value="&lt;font style=&quot;font-size: 20px&quot;&gt;ล็อกอินเข้าสู่ระบบ&lt;/font&gt;" style="text;html=1;strokeColor=none;fillColor=none;align=center;verticalAlign=middle;whiteSpace=wrap;rounded=0;" vertex="1" parent="1">
          <mxGeometry x="262.54" y="70" width="300" height="20" as="geometry" />
        </mxCell>
      </root>
    </mxGraphModel>
  </diagram>
</mxfile>
